# xmcd CD database file
#
# Track frame offsets:
#	150
#	16532
#	28385
#	41621
#	54617
#	67458
#	79741
#	96691
#	110228
#	124940
#	138922
#	152001
#	165047
#	177825
#	191326
#	205336
#	219732
#	233417
#	245260
#	258326
#
# Disc length: 3639 seconds
#
# Revision: 0
# Processed by: cddbd v1.4PL0 Copyright (c) Steve Scherf et al.
# Submitted via: CDex 1.50Beta7
#
DISCID=190e3514
DTITLE=Charlie Parker - Now's The Time
DYEAR=2003
DGENRE=Jazz
TTITLE0=Get Happy
TTITLE1=1 Yard Bird Suite
TTITLE2=Ornithology
TTITLE3=Tiny's Tempo
TTITLE4=Be Bop
TTITLE5=Dizzy Atmosphere
TTITLE6=Congo Blues
TTITLE7=The Jumpin' Blues
TTITLE8=Lover Man
TTITLE9=Hot House
TTITLE10=Koko
TTITLE11=Hootie Blues
TTITLE12=Dream Of You
TTITLE13=A Night At Tunisia
TTITLE14=Takin' Off
TTITLE15=Salt Peanuts
TTITLE16=One Woman Man
TTITLE17=Groovin' High
TTITLE18=Dexter Blues
TTITLE19=Now's The Time
EXTD=YEAR: 2003
EXTT0=
EXTT1=
EXTT2=
EXTT3=
EXTT4=
EXTT5=
EXTT6=
EXTT7=
EXTT8=
EXTT9=
EXTT10=
EXTT11=
EXTT12=
EXTT13=
EXTT14=
EXTT15=
EXTT16=
EXTT17=
EXTT18=
EXTT19=
PLAYORDER=
